<?xml version="1.0" encoding="utf-8"?>
<!-- Generator: Adobe Illustrator 25.0.1, SVG Export Plug-In . SVG Version: 6.00 Build 0)  -->
<svg version="1.1" id="Layer_1" xmlns="http://www.w3.org/2000/svg" xmlns:xlink="http://www.w3.org/1999/xlink" x="0px" y="0px"
	 viewBox="0 0 209.8 209.8" style="enable-background:new 0 0 209.8 209.8;" xml:space="preserve">
<style type="text/css">
	.st0{fill:#FFFFFF;}
	.st1{fill:#AECC53;}
	.st2{fill:#0D4B76;}
	.st3{fill:#3C3C3C;}
	.st4{fill:#006D68;}
	.st5{fill:#E98A23;}
</style>
<g>
	<path class="st0" d="M138.8,85.7c0-19.2-15.9-34.6-35.2-33.9C86.1,52.5,71.8,66.6,71,84c-0.4,9.2,2.8,17.7,8.4,24.1
		c5.9,6.8,9.4,15.3,9.4,24.3v0.7c0,8.8,7.2,16.1,16.1,16.1l0,0c8.8,0,16.1-7.2,16.1-16.1v-0.5c0-8.9,3.1-17.6,9.1-24.2
		C135.5,102.5,138.8,94.5,138.8,85.7L138.8,85.7z"/>
	<g>
		<path class="st1" d="M105.5,67.2l-0.6-0.6l-0.6,0.6c-0.7,0.7-17.3,16.3-17.3,26s8.1,17.9,17.9,17.9s17.9-8.1,17.9-17.9
			S106.2,67.9,105.5,67.2z"/>
		<path class="st2" d="M104.9,146.1c-0.7,0-1.3-0.6-1.3-1.3V88.8c0-0.7,0.6-1.3,1.3-1.3s1.3,0.6,1.3,1.3v55.9
			C106.2,145.5,105.6,146.1,104.9,146.1z"/>
	</g>
	<path class="st1" d="M118.7,138.9H91c-2.4,0-4.4,2-4.4,4.4l0,0c0,2.1,1.5,3.9,3.6,4.4c-0.8,0.8-1.3,1.9-1.3,3.1
		c0,2.4,2,4.4,4.4,4.4h2.8c1.2,3.7,4.6,6.4,8.7,6.4s7.6-2.7,8.7-6.4h2.8c2.4,0,4.4-2,4.4-4.4c0-1.2-0.5-2.3-1.3-3.1
		c2-0.4,3.6-2.2,3.6-4.4l0,0C123.2,140.9,121.2,138.9,118.7,138.9L118.7,138.9z"/>
</g>
<g>
	<g>
		<path class="st3" d="M160.2,50.8c30.2,30.2,30.2,79.2,0,109.5c-30.2,30.2-79.2,30.2-109.5,0L160.2,50.8z"/>
	</g>
	<g>
		<path class="st4" d="M50.8,50.8C20.5,81,20.5,130,50.8,160.3c30.2,30.2,79.2,30.2,109.5,0L50.8,50.8z"/>
	</g>
	<g>
		<path class="st5" d="M147.6,46.1c-11.4-8.9-26.4-13.8-42.1-13.8c-15.7,0-30.7,4.9-42.1,13.8l-4.5-5.8C71.6,30.4,88.2,25,105.5,25
			c17.3,0,33.9,5.4,46.6,15.3L147.6,46.1z"/>
	</g>
	<g>
		<path class="st5" d="M136.7,60.7c-8.6-6.7-19.1-10.1-31.2-10.1c-12.2,0-22.7,3.3-31.2,9.9l-4.5-5.8c9.8-7.6,21.8-11.4,35.7-11.4
			c13.5,0,25.9,4,35.7,11.7L136.7,60.7z"/>
	</g>
	<g>
		<path class="st5" d="M126.1,75.5c-5.5-4.3-12.6-6.5-20.6-6.5c-8.2,0-14.8,2-20.2,6.2l-4.5-5.8c6.7-5.2,14.8-7.8,24.7-7.8
			c9.6,0,18.3,2.8,25.1,8.1L126.1,75.5z"/>
	</g>
</g>
</svg>
